<svg xmlns="http://www.w3.org/2000/svg" width="114" height="86" viewBox="0 0 114 86" fill="none"><path d="M69.9467 73L114 11H46.8L2 73H69.9467Z" fill="#52B0B4"></path><line x1="29.6986" y1="10.878" x2="29.6986" y2="36.2145" stroke="#232425" stroke-width="2"></line><path d="M29.6986 15.1124H41.7927C42.345 15.1124 42.7927 15.5601 42.7927 16.1124V22.8939C42.7927 23.4462 42.345 23.8939 41.7927 23.8939H29.6986V15.1124Z" stroke="#232425" stroke-width="2"></path><path d="M27.4315 37.2433L2.80438 73H57L32.3729 37.2433C31.1806 35.5122 28.6238 35.5122 27.4315 37.2433Z" stroke="#232425" stroke-width="2"></path><path d="M16.6138 52.6767L23.6175 49.7055C24.5011 49.3306 25.5218 49.7366 25.9065 50.616V50.616C26.4269 51.8054 28.0151 52.0353 28.8513 51.0422L29.6751 50.0639C30.4743 49.1149 31.9356 49.1149 32.7348 50.0639L34.1176 51.706C34.8165 52.5359 36.0496 52.6572 36.8968 51.9795L40.585 49.0289" stroke="#232425" stroke-width="2"></path></svg>