<svg xmlns="http://www.w3.org/2000/svg" width="113" height="86" viewBox="0 0 113 86" fill="none"><path d="M68.9467 73L113 11H45.8L1 73H68.9467Z" fill="#E51448"></path><path d="M37.9818 47.6814H41.2763C41.7096 47.6814 42.0937 47.4023 42.2274 46.9901L43.5315 42.9715C43.8306 42.0496 45.1348 42.0497 45.4338 42.9716L46.7372 46.9899C46.8709 47.4022 47.255 47.6814 47.6884 47.6814H51.9343C52.9018 47.6814 53.3054 48.9186 52.5239 49.4891L49.0903 51.9957C48.7415 52.2504 48.5956 52.7003 48.7285 53.1112L50.0358 57.1518C50.3339 58.0731 49.2795 58.8379 48.4964 58.2685L45.0709 55.7783C44.7203 55.5234 44.2454 55.5234 43.8948 55.7783L41.2359 57.7113" stroke="#232425" stroke-width="2"></path><path d="M31.7086 49.7381L32.6604 49.4313L31.7086 49.7381C31.9749 50.5644 32.744 51.1245 33.6122 51.1245L44.5768 51.1245L35.7043 57.643C35.011 58.1523 34.7211 59.0479 34.9844 59.8669L38.3628 70.3751L29.5188 63.9049C28.8156 63.3904 27.8602 63.3904 27.157 63.9049L18.3232 70.3678C19.5837 66.4527 21.1397 61.6244 21.7072 59.8634C21.9728 59.0394 21.6765 58.147 20.9848 57.6401L12.0951 51.1245L23.0616 51.1245C23.9297 51.1245 24.6987 50.5645 24.9651 49.7383L28.3377 39.2792L31.7086 49.7381Z" stroke="#232425" stroke-width="2"></path><path d="M14.7719 57.713L12.1105 55.7783C11.7599 55.5234 11.285 55.5234 10.9344 55.7783L7.51437 58.2647C6.73117 58.834 5.67713 58.0692 5.97568 57.1481C6.48326 55.5821 7.00018 53.988 7.28506 53.1096C7.41852 52.6981 7.27171 52.2491 6.922 51.9944L3.48295 49.4897C2.70037 48.9198 3.10353 47.6814 4.07167 47.6814H8.31585C8.74922 47.6814 9.13326 47.4023 9.26702 46.9901L10.571 42.9715C10.8702 42.0496 12.1744 42.0497 12.4734 42.9716L13.7768 46.9899C13.9105 47.4022 14.2946 47.6814 14.728 47.6814H18.0203" stroke="#232425" stroke-width="2"></path><rect x="23.1724" y="12.0988" width="10.7353" height="13.2823" rx="5.36763" stroke="#232425" stroke-width="2"></rect><path d="M17.0783 42.4831V37.7927C17.0783 32.8222 21.1077 28.7927 26.0783 28.7927H31.0017C35.9723 28.7927 40.0017 32.8222 40.0017 37.7927V42.4831" stroke="#232425" stroke-width="2"></path></svg>