<svg xmlns="http://www.w3.org/2000/svg" width="114" height="86" viewBox="0 0 114 86" fill="none"><path d="M69.9467 73L114 11H46.8L2 73H69.9467Z" fill="#FDC300"></path><path d="M1 47.4683C16.9374 36.253 34.6948 50.6656 41.5814 59.2737L42.3192 60.0116L37.8922 64.4386C28.4478 47.9109 9.36222 46.2385 1 47.4683Z" stroke="#232425" stroke-width="2" stroke-linecap="round"></path><rect y="1.41421" width="12.2504" height="3.34392" rx="1.67196" transform="matrix(-0.707107 0.707107 0.707107 0.707107 43.4432 57.4744)" stroke="#232425" stroke-width="2"></rect><mask id="path-4-inside-1" fill="white"><path fill-rule="evenodd" clip-rule="evenodd" d="M46.5665 72.8645C47.417 73.2188 48.434 73.05 49.1259 72.3581L52.7764 68.7076C53.6916 67.7924 53.6916 66.3085 52.7764 65.3933C51.8612 64.4781 50.3773 64.4781 49.4621 65.3933L47.8684 66.987L45.2237 64.3422C44.155 63.2736 42.4224 63.2736 41.3537 64.3422C40.285 65.4109 40.285 67.1435 41.3537 68.2122L45.2827 72.1412C45.6501 72.5086 46.0961 72.7497 46.5665 72.8645Z"></path></mask><path d="M46.5665 72.8645L47.0405 70.9215L47.1918 70.9584L47.3356 71.0183L46.5665 72.8645ZM49.1259 72.3581L50.5401 73.7723L49.1259 72.3581ZM52.7764 68.7076L51.3622 67.2934L51.3622 67.2934L52.7764 68.7076ZM52.7764 65.3933L51.3622 66.8075L52.7764 65.3933ZM49.4621 65.3933L50.8763 66.8075L50.8763 66.8075L49.4621 65.3933ZM47.8684 66.987L49.2826 68.4012L47.8684 69.8154L46.4542 68.4012L47.8684 66.987ZM45.2237 64.3422L43.8094 65.7564L43.8094 65.7564L45.2237 64.3422ZM41.3537 64.3422L42.7679 65.7564L42.7679 65.7564L41.3537 64.3422ZM41.3537 68.2122L42.7679 66.798V66.798L41.3537 68.2122ZM45.2827 72.1412L43.8685 73.5554L43.8685 73.5554L45.2827 72.1412ZM47.3356 71.0183C47.4641 71.0718 47.6125 71.043 47.7117 70.9438L50.5401 73.7723C49.2555 75.0569 47.37 75.3658 45.7974 74.7107L47.3356 71.0183ZM47.7117 70.9438L51.3622 67.2934L54.1906 70.1218L50.5401 73.7723L47.7117 70.9438ZM51.3622 67.2934C51.4963 67.1592 51.4963 66.9417 51.3622 66.8075L54.1906 63.9791C55.8868 65.6754 55.8868 68.4255 54.1906 70.1218L51.3622 67.2934ZM51.3622 66.8075C51.228 66.6734 51.0105 66.6734 50.8763 66.8075L48.0479 63.9791C49.7442 62.2828 52.4943 62.2828 54.1906 63.9791L51.3622 66.8075ZM50.8763 66.8075L49.2826 68.4012L46.4542 65.5728L48.0479 63.9791L50.8763 66.8075ZM46.4542 68.4012L43.8094 65.7564L46.6379 62.928L49.2826 65.5728L46.4542 68.4012ZM43.8094 65.7564C43.5218 65.4688 43.0555 65.4688 42.7679 65.7564L39.9395 62.928C41.7892 61.0783 44.7882 61.0783 46.6379 62.928L43.8094 65.7564ZM42.7679 65.7564C42.4803 66.0441 42.4803 66.5104 42.7679 66.798L39.9395 69.6264C38.0898 67.7767 38.0898 64.7777 39.9395 62.928L42.7679 65.7564ZM42.7679 66.798L46.6969 70.727L43.8685 73.5554L39.9395 69.6264L42.7679 66.798ZM46.6969 70.727C46.7981 70.8281 46.9159 70.8911 47.0405 70.9215L46.0925 74.8075C45.2762 74.6084 44.5022 74.1891 43.8685 73.5554L46.6969 70.727Z" fill="#232425" mask="url(#path-4-inside-1)"></path><path d="M31.9894 43.0412V26.8086C34.4489 26.5627 39.3679 28.4319 39.3679 37.8763" stroke="#232425" stroke-width="2" stroke-linecap="round"></path><path d="M30.5137 21.6437H38.2706C42.1366 21.6437 45.2706 24.7777 45.2706 28.6437V39.352" stroke="#232425" stroke-width="2" stroke-linecap="round"></path><path d="M31.2516 17.9545C34.4489 14.7572 43.2046 11.3139 52.649 23.1194" stroke="#232425" stroke-width="2" stroke-linecap="round"></path><path d="M38.63 12.7896C35.6786 10.576 32.137 9.98586 29.7759 13.5275" stroke="#232425" stroke-width="2" stroke-linecap="round"></path><path d="M57.076 47.4683C41.1386 36.253 23.3812 50.6656 16.4947 59.2737L15.7568 60.0116L20.1839 64.4386C29.6283 47.9109 48.7138 46.2385 57.076 47.4683Z" fill="#FDC300" stroke="#232425" stroke-width="2" stroke-linecap="round"></path><rect x="13.6328" y="58.4744" width="12.2504" height="3.34392" rx="1.67196" transform="rotate(45 13.6328 58.4744)" stroke="#232425" stroke-width="2"></rect><mask id="path-12-inside-2" fill="white"><path fill-rule="evenodd" clip-rule="evenodd" d="M11.5096 72.8645C10.6591 73.2188 9.6421 73.05 8.95016 72.3581L5.29968 68.7076C4.38447 67.7924 4.38447 66.3085 5.29968 65.3933C6.21489 64.4781 7.69874 64.4781 8.61395 65.3933L10.2076 66.987L12.8524 64.3422C13.921 63.2736 15.6537 63.2736 16.7223 64.3422C17.791 65.4109 17.791 67.1435 16.7223 68.2122L12.7933 72.1412C12.4259 72.5086 11.98 72.7497 11.5096 72.8645Z"></path></mask><path d="M11.5096 72.8645L11.0355 70.9215L10.8842 70.9584L10.7405 71.0183L11.5096 72.8645ZM8.95016 72.3581L7.53595 73.7723L8.95016 72.3581ZM5.29968 68.7076L6.7139 67.2934L6.7139 67.2934L5.29968 68.7076ZM5.29968 65.3933L6.7139 66.8075L5.29968 65.3933ZM8.61395 65.3933L10.0282 63.9791V63.9791L8.61395 65.3933ZM10.2076 66.987L8.79342 68.4012L10.2076 69.8154L11.6218 68.4012L10.2076 66.987ZM12.8524 64.3422L14.2666 65.7564L14.2666 65.7564L12.8524 64.3422ZM16.7223 64.3422L15.3081 65.7564L15.3081 65.7564L16.7223 64.3422ZM16.7223 68.2122L18.1366 69.6264L18.1366 69.6264L16.7223 68.2122ZM12.7933 72.1412L11.3791 70.727L12.7933 72.1412ZM10.7405 71.0183C10.612 71.0718 10.4636 71.043 10.3644 70.9438L7.53595 73.7723C8.82061 75.0569 10.7061 75.3658 12.2787 74.7107L10.7405 71.0183ZM10.3644 70.9438L6.7139 67.2934L3.88547 70.1218L7.53595 73.7723L10.3644 70.9438ZM6.7139 67.2934C6.57974 67.1592 6.57974 66.9417 6.7139 66.8075L3.88547 63.9791C2.18921 65.6754 2.18921 68.4255 3.88547 70.1218L6.7139 67.2934ZM6.7139 66.8075C6.84806 66.6734 7.06558 66.6734 7.19974 66.8075L10.0282 63.9791C8.33191 62.2828 5.58173 62.2828 3.88547 63.9791L6.7139 66.8075ZM7.19974 66.8075L8.79342 68.4012L11.6218 65.5728L10.0282 63.9791L7.19974 66.8075ZM11.6218 68.4012L14.2666 65.7564L11.4382 62.928L8.79342 65.5728L11.6218 68.4012ZM14.2666 65.7564C14.5542 65.4688 15.0205 65.4688 15.3081 65.7564L18.1366 62.928C16.2868 61.0783 13.2879 61.0783 11.4382 62.928L14.2666 65.7564ZM15.3081 65.7564C15.5957 66.0441 15.5957 66.5104 15.3081 66.798L18.1366 69.6264C19.9863 67.7767 19.9863 64.7777 18.1366 62.928L15.3081 65.7564ZM15.3081 66.798L11.3791 70.727L14.2076 73.5554L18.1366 69.6264L15.3081 66.798ZM11.3791 70.727C11.278 70.8281 11.1601 70.8911 11.0355 70.9215L11.9836 74.8075C12.7999 74.6083 13.5738 74.1891 14.2076 73.5554L11.3791 70.727Z" fill="#232425" mask="url(#path-12-inside-2)"></path><path d="M26.0866 43.0412V26.8086C23.6272 26.5627 18.7082 28.4319 18.7082 37.8763" stroke="#232425" stroke-width="2" stroke-linecap="round"></path><path d="M27.5623 21.6437H19.8055C15.9395 21.6437 12.8055 24.7777 12.8055 28.6437V39.352" stroke="#232425" stroke-width="2" stroke-linecap="round"></path><path d="M26.8245 17.9545C23.6272 14.7572 14.8714 11.3139 5.42702 23.1194" stroke="#232425" stroke-width="2" stroke-linecap="round"></path><path d="M19.446 12.7896C22.3974 10.576 25.9391 9.98586 28.3002 13.5275" stroke="#232425" stroke-width="2" stroke-linecap="round"></path></svg>